<svg id="SvgjsSvg1356" width="100%" height="100%" xmlns="http://www.w3.org/2000/svg" version="1.1" xlink="http://www.w3.org/1999/xlink" xmlns:svgjs="http://svgjs.com/svgjs" preserveAspectRatio="xMidYMid meet" viewBox="0 0 196.074462890625 147.00003051757812" overflow="visible"><defs id="SvgjsDefs1357"></defs><g id="SvgjsG1358" transform="scale(0.7365127972856247)" opacity="1"><g id="SvgjsG1359" class="sIBpVEDPQ" transform="translate(85.19040000000001, 0) scale(3.9933)" light-content="false" non-strokable="false" fill="#0f0f0f"><path d="M22 8.077V5.5a.5.5 0 0 0-.5-.5A2.503 2.503 0 0 1 19 2.5a.5.5 0 0 0-.5-.5h-3.077c-.36-1.154-1.955-2-3.923-2S7.938.846 7.577 2H5.5a.5.5 0 0 0-.5.5C5 3.879 3.878 5 2.5 5a.5.5 0 0 0-.5.5v2.577C.846 8.437 0 10.032 0 12s.846 3.563 2 3.923V18.5a.5.5 0 0 0 .5.5C3.878 19 5 20.121 5 21.5a.5.5 0 0 0 .5.5h2.577c.36 1.154 1.955 2 3.923 2s3.562-.846 3.923-2H18.5a.5.5 0 0 0 .5-.5c0-1.379 1.122-2.5 2.5-2.5a.5.5 0 0 0 .5-.5v-2.577c1.154-.36 2-1.955 2-3.923s-.846-3.563-2-3.923zM21.5 15a.5.5 0 0 0-.5.5v2.535A3.51 3.51 0 0 0 18.036 21H15.5a.5.5 0 0 0-.5.5c0 .71-1.232 1.5-3 1.5s-3-.79-3-1.5a.5.5 0 0 0-.5-.5H5.964A3.509 3.509 0 0 0 3 18.035V15.5a.5.5 0 0 0-.5-.5C1.791 15 1 13.768 1 12s.791-3 1.5-3a.5.5 0 0 0 .5-.5V5.965A3.51 3.51 0 0 0 5.964 3H8a.5.5 0 0 0 .5-.5c0-.71 1.232-1.5 3-1.5s3 .79 3 1.5a.5.5 0 0 0 .5.5h3.036A3.509 3.509 0 0 0 21 5.965V8.5a.5.5 0 0 0 .5.5c.709 0 1.5 1.232 1.5 3s-.791 3-1.5 3z"></path></g><g id="SvgjsG1360" class="text" transform="translate(132.64749984741212, 69.72210061035156) scale(1)" light-content="false" fill="#0f0f0f"><path d="M4.58 -12.5L7.93 -1.52L4.27 -0.61L4.27 0L17.08 0L17.08 -0.61L13.42 -1.52L0.61 -43.61L-0.3 -43.61L-12.2 -2.13L-16.16 -0.61L-16.16 0L-7.01 0L-7.01 -0.61L-10.98 -2.13L-7.93 -12.5ZM-7.62 -13.66L-1.89 -33.85L4.21 -13.66Z"></path></g><g id="SvgjsG1361" class="text" transform="translate(132.57000732421875, 157.97919938964844) scale(1)" light-content="false" fill="#0f0f0f"><path d="M-99.81 -9L-111.27 -43.14L-112.59 -43.14L-126.15 -9.48C-127.19 -6.92 -128.16 -5.04 -129.06 -3.84C-129.96 -2.64 -131.11 -2.02 -132.51 -1.98L-132.57 0L-121.59 0L-121.47 -2.64L-125.97 -2.4C-125.33 -3.6 -124.71 -4.98 -124.11 -6.54L-121.71 -12.96L-106.35 -13.32L-104.61 -7.68C-104.29 -6.56 -104.13 -5.66 -104.13 -4.98C-104.13 -3.02 -105.33 -2.02 -107.73 -1.98L-107.79 0L-94.77 0L-94.65 -2.64L-98.55 -2.4C-98.47 -3.2 -98.57 -4.24 -98.85 -5.52C-99.13 -6.8 -99.45 -7.96 -99.81 -9ZM-113.43 -34.8L-113.31 -34.8C-111.39 -29.12 -109.29 -22.7 -107.01 -15.54L-120.75 -15.54L-119.61 -18.48C-117.65 -23.72 -116.43 -26.92 -115.95 -28.08Z M-76.11 -40.02L-75.99 -42L-89.25 -42L-89.25 -39.36L-84.99 -39.6C-85.11 -38.96 -85.2 -38.16 -85.26 -37.2C-85.32 -36.24 -85.37 -35.6 -85.41 -35.28L-86.85 -9.36C-86.97 -7.28 -87.09 -5.84 -87.21 -5.04C-87.33 -4.24 -87.7 -3.54 -88.32 -2.94C-88.94 -2.34 -89.95 -2.02 -91.35 -1.98L-91.47 0L-61.95 0L-60.93 -12.42L-62.97 -12.42C-63.13 -8.94 -63.89 -6.42 -65.25 -4.86C-66.61 -3.3 -68.59 -2.48 -71.19 -2.4L-82.41 -2.22C-82.25 -3.1 -82.11 -4.66 -81.99 -6.9L-80.61 -32.64C-80.53 -34.44 -80.4 -35.81 -80.22 -36.75C-80.04 -37.69 -79.64 -38.46 -79.02 -39.06C-78.4 -39.66 -77.43 -39.98 -76.11 -40.02Z M-26.19 -31.5L-25.95 -42L-54.57 -42L-54.69 -39.36L-50.31 -39.6C-50.55 -38.08 -50.69 -36.64 -50.73 -35.28L-52.17 -9.36C-52.25 -7.36 -52.36 -5.94 -52.5 -5.1C-52.64 -4.26 -53.02 -3.54 -53.64 -2.94C-54.26 -2.34 -55.27 -2.02 -56.67 -1.98L-56.79 0L-26.07 0L-25.11 -11.7L-27.15 -11.7C-27.31 -8.3 -28.17 -5.91 -29.73 -4.53C-31.29 -3.15 -33.47 -2.44 -36.27 -2.4L-47.73 -2.22C-47.57 -3.1 -47.43 -4.66 -47.31 -6.9L-46.59 -20.64L-42.21 -20.82L-40.29 -20.88C-38.97 -20.88 -37.95 -20.75 -37.23 -20.49C-36.51 -20.23 -36 -19.72 -35.7 -18.96C-35.4 -18.2 -35.27 -17.06 -35.31 -15.54L-33.33 -15.54L-32.67 -28.62L-34.65 -28.62C-34.73 -26.9 -35.03 -25.64 -35.55 -24.84C-36.07 -24.04 -36.83 -23.52 -37.83 -23.28C-38.83 -23.04 -40.27 -22.94 -42.15 -22.98L-46.47 -23.04L-45.93 -32.64C-45.81 -34.6 -45.65 -36.03 -45.45 -36.93C-45.25 -37.83 -44.82 -38.52 -44.16 -39C-43.5 -39.48 -42.45 -39.74 -41.01 -39.78L-35.85 -39.9C-33.29 -39.98 -31.33 -39.42 -29.97 -38.22C-28.61 -37.02 -28.01 -34.78 -28.17 -31.5Z M16.59 -40.02L16.71 -42L4.89 -42L4.77 -39.36L9.81 -39.6C9.25 -39.12 8.44 -38.2 7.38 -36.84C6.32 -35.48 5.25 -34.08 4.17 -32.64L-2.07 -24.3C-5.63 -29.54 -7.93 -33.12 -8.97 -35.04C-9.41 -35.8 -9.73 -36.41 -9.93 -36.87C-10.13 -37.33 -10.23 -37.78 -10.23 -38.22C-10.23 -39.22 -9.27 -39.78 -7.35 -39.9L-4.71 -40.02L-4.59 -42L-20.19 -42L-20.31 -39.36L-16.95 -39.48C-16.55 -38.28 -16.06 -37.15 -15.48 -36.09C-14.9 -35.03 -13.88 -33.39 -12.42 -31.17C-10.96 -28.95 -8.51 -25.32 -5.07 -20.28L-13.41 -9.18C-14.65 -7.5 -15.63 -6.24 -16.35 -5.4C-17.07 -4.56 -17.89 -3.84 -18.81 -3.24C-19.73 -2.64 -20.79 -2.22 -21.99 -1.98L-22.11 0L-10.35 0L-10.23 -2.64L-15.21 -2.34C-14.25 -3.38 -13.33 -4.51 -12.45 -5.73C-11.57 -6.95 -11.03 -7.7 -10.83 -7.98C-10.71 -8.14 -10.59 -8.32 -10.47 -8.52C-10.35 -8.72 -10.19 -8.94 -9.99 -9.18L-3.51 -18.06L0.21 -12.66C1.65 -10.66 3.09 -8.56 4.53 -6.36C5.09 -5.44 5.37 -4.66 5.37 -4.02C5.37 -2.62 4.19 -1.94 1.83 -1.98L1.71 0L16.47 0L16.59 -2.64L13.11 -2.52C12.23 -3.92 11.25 -5.34 10.17 -6.78L9.27 -8.1C6.91 -11.26 3.63 -15.92 -0.57 -22.08L6.75 -31.68C8.67 -34.16 10.37 -36.11 11.85 -37.53C13.33 -38.95 14.91 -39.78 16.59 -40.02Z M30.75 -6.54L32.61 -42.96L30.57 -42.96L18.87 -34.32L19.95 -32.52L27.27 -37.14L27.39 -37.14L26.07 -8.82C25.99 -6.62 25.53 -4.95 24.69 -3.81C23.85 -2.67 22.45 -2.06 20.49 -1.98L20.43 0L35.31 0L35.43 -2.64L30.39 -2.4C30.55 -3.16 30.67 -4.54 30.75 -6.54Z M62.1 -41.91C60.36 -42.61 58.49 -42.96 56.49 -42.96C54.37 -42.96 52.34 -42.56 50.4 -41.76C48.46 -40.96 46.84 -39.74 45.54 -38.1C44.24 -36.46 43.53 -34.44 43.41 -32.04C43.33 -30.28 43.95 -28.51 45.27 -26.73C46.59 -24.95 48.57 -23.26 51.21 -21.66C48.41 -19.98 46.12 -18.01 44.34 -15.75C42.56 -13.49 41.67 -11.08 41.67 -8.52C41.67 -5.24 42.89 -2.84 45.33 -1.32C47.77 0.2 50.83 0.96 54.51 0.96C58.31 0.96 61.53 0.03 64.17 -1.83C66.81 -3.69 68.21 -6.42 68.37 -10.02C68.49 -12.46 67.71 -14.76 66.03 -16.92C64.35 -19.08 62.11 -21 59.31 -22.68C61.71 -23.92 63.74 -25.54 65.4 -27.54C67.06 -29.54 67.89 -31.66 67.89 -33.9C67.89 -35.82 67.36 -37.46 66.3 -38.82C65.24 -40.18 63.84 -41.21 62.1 -41.91ZM52.38 -39.54C53.56 -40.26 54.93 -40.62 56.49 -40.62C58.69 -40.62 60.42 -39.93 61.68 -38.55C62.94 -37.17 63.49 -35.24 63.33 -32.76C63.25 -31.32 62.66 -29.77 61.56 -28.11C60.46 -26.45 58.99 -25.02 57.15 -23.82C54.35 -24.98 52.24 -26.34 50.82 -27.9C49.4 -29.46 48.69 -31.14 48.69 -32.94C48.69 -34.26 49.01 -35.51 49.65 -36.69C50.29 -37.87 51.2 -38.82 52.38 -39.54ZM48.21 -15.06C49.25 -17.14 50.93 -18.96 53.25 -20.52C53.49 -20.36 53.89 -20.16 54.45 -19.92C57.09 -18.64 59.15 -17.13 60.63 -15.39C62.11 -13.65 62.85 -11.7 62.85 -9.54C62.85 -7.22 62.09 -5.29 60.57 -3.75C59.05 -2.21 57.11 -1.44 54.75 -1.44C52.15 -1.44 50.15 -2.11 48.75 -3.45C47.35 -4.79 46.65 -6.72 46.65 -9.24C46.65 -11.04 47.17 -12.98 48.21 -15.06Z M106.38 -35.43C105.52 -38.49 104.93 -40.72 104.61 -42.12L102.99 -42.12C102.39 -40.28 99.79 -33.22 95.19 -20.94C94.63 -19.34 94.19 -18.14 93.87 -17.34L93.09 -15.3C92.41 -13.5 91.65 -11.44 90.81 -9.12L90.69 -9.12L89.79 -12.18C88.91 -15.22 88.23 -17.66 87.75 -19.5C87.39 -20.98 86.87 -22.8 86.19 -24.96C86.03 -25.48 85.7 -26.6 85.2 -28.32C84.7 -30.04 84.27 -31.76 83.91 -33.48C83.63 -34.64 83.49 -35.7 83.49 -36.66C83.49 -37.82 83.84 -38.65 84.54 -39.15C85.24 -39.65 86.45 -39.94 88.17 -40.02L88.29 -42L73.89 -42L73.77 -39.36L77.13 -39.48C77.21 -38.76 77.4 -37.83 77.7 -36.69C78 -35.55 78.37 -34.26 78.81 -32.82L79.23 -31.32L88.29 0.66L89.85 0.66L102.15 -31.86L102.39 -31.86C103.11 -28.94 103.91 -25.98 104.79 -22.98L111.63 0.66L113.19 0.66C114.99 -3.66 117.77 -10.68 121.53 -20.4C122.97 -24.24 124.35 -27.82 125.67 -31.14C126.67 -33.74 127.49 -35.61 128.13 -36.75C128.77 -37.89 129.47 -38.68 130.23 -39.12C130.99 -39.56 132.09 -39.86 133.53 -40.02L133.65 -42L121.47 -42L121.35 -39.36L126.15 -39.54C125.39 -38.34 124.71 -36.88 124.11 -35.16L123.27 -32.94C120.99 -27.14 118.91 -21.64 117.03 -16.44L113.97 -8.58L113.85 -8.58C113.37 -10.46 112.49 -13.68 111.21 -18.24L110.85 -19.5C110.73 -19.98 109.89 -22.96 108.33 -28.44C107.89 -30.04 107.24 -32.37 106.38 -35.43Z"></path></g><rect id="SvgjsRect1362" width="65.67500000000001" height="2" fill="#0f0f0f" transform="translate(0, 187.2642) scale(1)" light-content="false"></rect><g id="SvgjsG1363" class="text" transform="translate(134.03500061035157, 199.22920091552734) scale(1)" light-content="false" fill="#0f0f0f"><path d="M-43.15 0L-40.51 0L-47.83 -20.94L-51.04 -20.94L-58.36 0L-55.81 0L-53.71 -6.18L-45.25 -6.18ZM-49.42 -18.6L-45.88 -8.4L-53.11 -8.4L-49.57 -18.6Z M-39.16 -2.1L-39.16 0L-38.23 0C-37.59 0 -37.05 -0.07 -36.58 -0.22C-36.12 -0.37 -35.7 -0.64 -35.33 -1.02C-35.02 -1.32 -34.75 -1.72 -34.48 -2.23C-34.22 -2.74 -34 -3.4 -33.81 -4.2C-33.62 -5 -33.47 -5.96 -33.36 -7.08C-33.25 -8.2 -33.19 -9.51 -33.19 -11.01L-33.19 -13.38L-27.4 -13.38L-27.4 0L-25 0L-25 -15.48L-35.47 -15.48L-35.47 -11.07C-35.47 -9.77 -35.51 -8.64 -35.59 -7.68C-35.67 -6.72 -35.79 -5.89 -35.92 -5.19C-36.06 -4.49 -36.24 -3.89 -36.43 -3.39C-36.63 -2.89 -36.87 -2.46 -37.12 -2.1Z M-14.08 0.36C-12.63 0.36 -11.37 0.04 -10.3 -0.61C-9.24 -1.26 -8.46 -2.12 -7.96 -3.18L-9.67 -4.41C-10.07 -3.55 -10.64 -2.89 -11.37 -2.43C-12.1 -1.97 -12.96 -1.74 -13.93 -1.74C-14.65 -1.74 -15.3 -1.86 -15.87 -2.1C-16.44 -2.34 -16.92 -2.67 -17.31 -3.09C-17.7 -3.51 -18 -4 -18.21 -4.57C-18.42 -5.14 -18.52 -5.76 -18.52 -6.42L-18.52 -7.14L-7.39 -7.14L-7.39 -8.28C-7.39 -9.38 -7.55 -10.39 -7.86 -11.31C-8.17 -12.23 -8.61 -13.02 -9.19 -13.69C-9.77 -14.37 -10.47 -14.89 -11.29 -15.27C-12.12 -15.65 -13.05 -15.84 -14.08 -15.84C-15.14 -15.84 -16.1 -15.65 -16.95 -15.27C-17.8 -14.89 -18.53 -14.34 -19.14 -13.63C-19.75 -12.93 -20.22 -12.07 -20.55 -11.07C-20.88 -10.07 -21.04 -8.96 -21.04 -7.74C-21.04 -6.5 -20.88 -5.38 -20.55 -4.39C-20.22 -3.4 -19.75 -2.55 -19.14 -1.84C-18.53 -1.14 -17.8 -0.59 -16.95 -0.21C-16.1 0.17 -15.15 0.36 -14.08 0.36ZM-14.08 -13.83C-12.84 -13.83 -11.85 -13.41 -11.1 -12.58C-10.35 -11.76 -9.97 -10.65 -9.97 -9.27L-9.97 -8.94L-18.52 -8.94L-18.52 -9.15C-18.52 -9.83 -18.41 -10.45 -18.19 -11.02C-17.98 -11.59 -17.67 -12.09 -17.28 -12.51C-16.89 -12.93 -16.42 -13.26 -15.88 -13.48C-15.34 -13.71 -14.74 -13.83 -14.08 -13.83Z M-3.43 -15.48L-3.43 0L-1.04 0L-1.04 -6.96L2.05 -6.96L4.9 -1.89C5.31 -1.17 5.72 -0.67 6.15 -0.4C6.58 -0.13 7.05 0 7.57 0L9.32 0L9.32 -2.1L7.55 -2.1L5.18 -6.3C4.84 -6.9 4.51 -7.3 4.2 -7.51C3.89 -7.72 3.53 -7.86 3.11 -7.92L3.11 -8.04C3.3 -8.1 3.47 -8.16 3.62 -8.23C3.75 -8.31 3.89 -8.4 4.01 -8.5C4.13 -8.61 4.24 -8.75 4.37 -8.91C4.48 -9.07 4.62 -9.28 4.79 -9.54L7.22 -13.38L9.07 -13.38L9.07 -15.48L7.66 -15.48C7.39 -15.48 7.14 -15.46 6.91 -15.4C6.69 -15.36 6.48 -15.27 6.29 -15.15C6.09 -15.03 5.88 -14.85 5.69 -14.62C5.49 -14.4 5.28 -14.1 5.06 -13.74L2.05 -9L-1.04 -9L-1.04 -15.48Z M18.35 0.36C19.83 0.36 21.06 0.03 22.05 -0.63C23.04 -1.29 23.79 -2.18 24.28 -3.3L22.55 -4.47C21.69 -2.67 20.28 -1.77 18.35 -1.77C16.93 -1.77 15.85 -2.2 15.12 -3.07C14.39 -3.94 14.02 -5.06 14.02 -6.42L14.02 -9.06C14.02 -9.74 14.11 -10.36 14.29 -10.93C14.47 -11.5 14.74 -12 15.1 -12.4C15.46 -12.81 15.92 -13.13 16.45 -13.36C16.99 -13.59 17.63 -13.71 18.35 -13.71C19.31 -13.71 20.1 -13.49 20.74 -13.05C21.39 -12.61 21.84 -11.99 22.13 -11.19L24.14 -12.21C23.67 -13.29 22.98 -14.16 22.05 -14.83C21.12 -15.5 19.89 -15.84 18.35 -15.84C17.26 -15.84 16.3 -15.65 15.43 -15.27C14.57 -14.89 13.85 -14.35 13.26 -13.65C12.67 -12.95 12.22 -12.1 11.91 -11.1C11.6 -10.1 11.44 -8.98 11.44 -7.74C11.44 -6.5 11.6 -5.38 11.91 -4.38C12.22 -3.38 12.67 -2.53 13.26 -1.83C13.85 -1.13 14.57 -0.59 15.43 -0.21C16.3 0.17 17.26 0.36 18.35 0.36Z M33.32 0.36C34.77 0.36 36.03 0.04 37.1 -0.61C38.16 -1.26 38.94 -2.12 39.44 -3.18L37.73 -4.41C37.33 -3.55 36.76 -2.89 36.03 -2.43C35.3 -1.97 34.44 -1.74 33.46 -1.74C32.74 -1.74 32.1 -1.86 31.53 -2.1C30.96 -2.34 30.48 -2.67 30.09 -3.09C29.7 -3.51 29.4 -4 29.19 -4.57C28.98 -5.14 28.88 -5.76 28.88 -6.42L28.88 -7.14L40.01 -7.14L40.01 -8.28C40.01 -9.38 39.85 -10.39 39.54 -11.31C39.23 -12.23 38.79 -13.02 38.21 -13.69C37.63 -14.37 36.93 -14.89 36.1 -15.27C35.28 -15.65 34.35 -15.84 33.32 -15.84C32.26 -15.84 31.3 -15.65 30.45 -15.27C29.6 -14.89 28.87 -14.34 28.26 -13.63C27.65 -12.93 27.18 -12.07 26.85 -11.07C26.52 -10.07 26.36 -8.96 26.36 -7.74C26.36 -6.5 26.52 -5.38 26.85 -4.39C27.18 -3.4 27.65 -2.55 28.26 -1.84C28.87 -1.14 29.6 -0.59 30.45 -0.21C31.3 0.17 32.25 0.36 33.32 0.36ZM33.32 -13.83C34.56 -13.83 35.55 -13.41 36.3 -12.58C37.05 -11.76 37.42 -10.65 37.42 -9.27L37.42 -8.94L28.88 -8.94L28.88 -9.15C28.88 -9.83 28.99 -10.45 29.21 -11.02C29.42 -11.59 29.73 -12.09 30.12 -12.51C30.51 -12.93 30.98 -13.26 31.52 -13.48C32.06 -13.71 32.66 -13.83 33.32 -13.83Z M43.97 -15.48L43.97 0L46.19 0L52.37 -9L54.29 -12.3L54.41 -12.3L54.17 -8.58L54.17 0L56.51 0L56.51 -15.48L54.29 -15.48L48.11 -6.48L46.19 -3.18L46.07 -3.18L46.31 -6.9L46.31 -15.48ZM50.3 -17.88C51.38 -17.88 52.23 -18.1 52.88 -18.52C53.52 -18.95 54.03 -19.52 54.41 -20.22L55.01 -21.36L52.91 -22.29L51.86 -19.83C51.62 -19.77 51.36 -19.72 51.08 -19.69C50.79 -19.66 50.54 -19.65 50.3 -19.65C50.06 -19.65 49.8 -19.66 49.52 -19.69C49.23 -19.72 48.97 -19.77 48.74 -19.83L47.69 -22.29L45.59 -21.36L46.19 -20.22C46.57 -19.52 47.08 -18.95 47.72 -18.52C48.35 -18.1 49.22 -17.88 50.3 -17.88Z"></path></g><rect id="SvgjsRect1364" width="65.67500000000001" height="2" fill="#0f0f0f" transform="translate(200.54500000000002, 187.2642) scale(1)" light-content="false"></rect></g></svg>